<svg width="205" height="205" viewBox="0 0 205 205" fill="none" xmlns="http://www.w3.org/2000/svg">
<g filter="url(#filter0_b_1563_3257)">
<circle cx="102.564" cy="102.064" r="102.064" fill="white" fill-opacity="0.1"/>
</g>
<g filter="url(#filter1_b_1563_3257)">
<circle cx="102.13" cy="101.631" r="83.3888" fill="white" fill-opacity="0.1"/>
</g>
<g filter="url(#filter2_b_1563_3257)">
<circle cx="102.13" cy="101.633" r="59.0671" fill="white" fill-opacity="0.1"/>
</g>
<path d="M97.2429 77.2185L75.0919 99.3695C73.2357 101.226 73.2357 104.235 75.0919 106.091L97.2429 128.242C99.0991 130.099 102.109 130.099 103.965 128.242L126.116 106.091C127.972 104.235 127.972 101.226 126.116 99.3695L103.965 77.2185C102.109 75.3623 99.0991 75.3623 97.2429 77.2185Z" fill="white"/>
<path d="M99.5688 77.0935L77.4178 99.2445C75.5616 101.101 75.5616 104.11 77.4178 105.966L99.5688 128.117C101.425 129.974 104.435 129.974 106.291 128.117L128.442 105.966C130.298 104.11 130.298 101.101 128.442 99.2445L106.291 77.0935C104.435 75.2373 101.425 75.2373 99.5688 77.0935Z" fill="black" stroke="black" stroke-width="0.401574" stroke-miterlimit="2.61313" stroke-linecap="round" stroke-linejoin="round"/>
<path d="M100.361 76.6951L78.2103 98.8461C76.3541 100.702 76.3541 103.712 78.2103 105.568L100.361 127.719C102.218 129.575 105.227 129.575 107.083 127.719L129.234 105.568C131.09 103.712 131.09 100.702 129.234 98.8461L107.083 76.6951C105.227 74.8389 102.218 74.8389 100.361 76.6951Z" fill="#FFCC00"/>
<path d="M99.7819 93.6045C100.873 94.9256 101.467 96.5817 101.467 98.2953C101.467 102.364 98.1737 105.657 94.1051 105.657C90.0365 105.657 86.7434 102.364 86.7434 98.2953C86.7434 94.2267 90.0365 90.9336 94.1051 90.9336C95.1869 90.9336 96.259 91.1729 97.2355 91.6324" stroke="black" stroke-width="1.11048" stroke-miterlimit="2.61313" stroke-linecap="round" stroke-linejoin="round"/>
<path d="M98.279 94.8492C99.0831 95.8161 99.5235 97.0414 99.5235 98.3051C99.5235 101.292 97.1015 103.723 94.1051 103.723C91.1088 103.723 88.6868 101.301 88.6868 98.3051C88.6868 95.3087 91.1088 92.8867 94.1051 92.8867C94.8997 92.8867 95.6847 93.059 96.4027 93.4037" stroke="black" stroke-width="1.11048" stroke-miterlimit="2.61313" stroke-linecap="round" stroke-linejoin="round"/>
<path d="M93.9041 101.054C95.3105 101.054 96.4505 99.9137 96.4505 98.5074C96.4505 97.101 95.3105 95.9609 93.9041 95.9609C92.4977 95.9609 91.3577 97.101 91.3577 98.5074C91.3577 99.9137 92.4977 101.054 93.9041 101.054Z" fill="black" stroke="black" stroke-width="2.22095" stroke-miterlimit="2.61313" stroke-linecap="round" stroke-linejoin="round"/>
<path d="M95.522 96.5314L99.9352 90.5195" stroke="black" stroke-width="1.11048" stroke-miterlimit="2.61313" stroke-linecap="round" stroke-linejoin="round"/>
<path d="M100.921 90.7735C101.725 90.7735 102.376 90.122 102.376 89.3184C102.376 88.5148 101.725 87.8633 100.921 87.8633C100.118 87.8633 99.4661 88.5148 99.4661 89.3184C99.4661 90.122 100.118 90.7735 100.921 90.7735Z" fill="black" stroke="black" stroke-width="2.22095" stroke-miterlimit="2.61313" stroke-linecap="round" stroke-linejoin="round"/>
<path d="M101.926 90.3672L106.847 95.0101" stroke="black" stroke-width="1.11048" stroke-miterlimit="2.61313" stroke-linecap="round" stroke-linejoin="round"/>
<path d="M107.977 97.4532C108.78 97.4532 109.432 96.8017 109.432 95.9981C109.432 95.1944 108.78 94.543 107.977 94.543C107.173 94.543 106.521 95.1944 106.521 95.9981C106.521 96.8017 107.173 97.4532 107.977 97.4532Z" fill="black" stroke="black" stroke-width="2.22095" stroke-miterlimit="2.61313" stroke-linecap="round" stroke-linejoin="round"/>
<path d="M109.039 94.9917L113.156 90.4062" stroke="black" stroke-width="1.11048" stroke-miterlimit="2.61313" stroke-linecap="round" stroke-linejoin="round"/>
<path d="M114.371 90.9141C115.175 90.9141 115.826 90.2626 115.826 89.459C115.826 88.6554 115.175 88.0039 114.371 88.0039C113.568 88.0039 112.916 88.6554 112.916 89.459C112.916 90.2626 113.568 90.9141 114.371 90.9141Z" fill="black" stroke="black" stroke-width="2.22095" stroke-miterlimit="2.61313" stroke-linecap="round" stroke-linejoin="round"/>
<path d="M120.68 101.607L118.947 102.229L114.218 98.8593L115.52 97.0309L120.249 100.401L118.516 101.023L120.68 101.597V101.607ZM120.68 101.607L120.268 103.167L118.947 102.229L120.68 101.607ZM123.226 84.404L124.93 85.6198L120.68 101.607L118.516 101.032L122.767 85.0454L124.471 86.2612L123.217 84.404H123.226ZM123.226 84.404L125.706 82.7383L124.94 85.6198L123.236 84.404H123.226ZM109.489 95.4896L109.508 93.6516L123.226 84.404L124.48 86.2612L110.762 95.5088L110.781 93.6707L109.479 95.4992L109.489 95.4896ZM109.489 95.4896L108.168 94.5515L109.508 93.6516L109.489 95.4896ZM114.869 97.9499L114.218 98.8593L109.489 95.4896L110.791 93.6612L115.52 97.0309L114.869 97.9403V97.9499ZM114.735 97.1841C114.917 96.9352 115.261 96.8777 115.51 97.05C115.759 97.2319 115.817 97.5766 115.644 97.8255L114.735 97.1841ZM100.423 109.371L100.04 108.327L100.595 108.117L101.141 107.896L101.687 107.667L102.223 107.427L102.759 107.188L103.285 106.939L103.802 106.681L104.319 106.413L104.827 106.135L105.325 105.848L105.822 105.551L106.311 105.245L106.789 104.929L107.268 104.603L107.737 104.268L108.196 103.924L108.656 103.569L109.106 103.206L109.546 102.832L109.987 102.459L110.417 102.066L110.839 101.674L111.26 101.272L111.671 100.86L112.074 100.439L112.476 99.9985L112.868 99.5582L113.251 99.0987L113.634 98.6296L114.007 98.1509L114.371 97.6627L114.735 97.1649L115.644 97.8063L115.271 98.3137L114.888 98.8115L114.505 99.2997L114.113 99.7784L113.711 100.247L113.308 100.707L112.897 101.157L112.476 101.597L112.045 102.028L111.614 102.449L111.174 102.861L110.724 103.263L110.274 103.655L109.814 104.038L109.345 104.412L108.876 104.776L108.397 105.13L107.909 105.474L107.421 105.809L106.923 106.135L106.416 106.451L105.908 106.757L105.392 107.054L104.865 107.341L104.339 107.619L103.802 107.887L103.257 108.145L102.711 108.394L102.156 108.633L101.591 108.873L101.026 109.093L100.452 109.313L100.423 109.371ZM100.423 109.371C100.136 109.476 99.82 109.332 99.7051 109.045C99.5998 108.758 99.7434 108.442 100.031 108.327L100.414 109.371H100.423Z" fill="black"/>
<path d="M101.496 111.449H99.1406V116.657H101.496V111.449Z" fill="black" stroke="black" stroke-width="1.11048" stroke-miterlimit="2.61313" stroke-linecap="round" stroke-linejoin="round"/>
<path d="M105.105 109.77H102.75V116.662H105.105V109.77Z" fill="black" stroke="black" stroke-width="1.11048" stroke-miterlimit="2.61313" stroke-linecap="round" stroke-linejoin="round"/>
<path d="M108.723 107.836H106.368V116.653H108.723V107.836Z" fill="black" stroke="black" stroke-width="1.11048" stroke-miterlimit="2.61313" stroke-linecap="round" stroke-linejoin="round"/>
<path d="M112.332 105.656H109.977V116.665H112.332V105.656Z" fill="black" stroke="black" stroke-width="1.11048" stroke-miterlimit="2.61313" stroke-linecap="round" stroke-linejoin="round"/>
<path d="M96.958 116.664H115.099" stroke="black" stroke-width="1.11048" stroke-miterlimit="2.61313" stroke-linecap="round" stroke-linejoin="round"/>
<path fill-rule="evenodd" clip-rule="evenodd" d="M96.2017 105.531V114.817C96.2017 115.966 95.2827 116.904 94.1626 116.904C93.0426 116.904 92.1235 115.966 92.1235 114.817C92.1235 111.725 92.1235 108.633 92.1235 105.531C93.5021 105.79 94.8614 105.809 96.2017 105.531Z" stroke="black" stroke-width="1.11048" stroke-miterlimit="2.61313" stroke-linecap="round" stroke-linejoin="round"/>
<path d="M90.333 107.707H97.7234" stroke="black" stroke-width="2.22095" stroke-miterlimit="2.61313" stroke-linecap="round" stroke-linejoin="round"/>
<defs>
<filter id="filter0_b_1563_3257" x="-260.09" y="-260.59" width="725.309" height="725.309" filterUnits="userSpaceOnUse" color-interpolation-filters="sRGB">
<feFlood flood-opacity="0" result="BackgroundImageFix"/>
<feGaussianBlur in="BackgroundImageFix" stdDeviation="130.295"/>
<feComposite in2="SourceAlpha" operator="in" result="effect1_backgroundBlur_1563_3257"/>
<feBlend mode="normal" in="SourceGraphic" in2="effect1_backgroundBlur_1563_3257" result="shape"/>
</filter>
<filter id="filter1_b_1563_3257" x="-849.892" y="-850.391" width="1904.04" height="1904.04" filterUnits="userSpaceOnUse" color-interpolation-filters="sRGB">
<feFlood flood-opacity="0" result="BackgroundImageFix"/>
<feGaussianBlur in="BackgroundImageFix" stdDeviation="434.317"/>
<feComposite in2="SourceAlpha" operator="in" result="effect1_backgroundBlur_1563_3257"/>
<feBlend mode="normal" in="SourceGraphic" in2="effect1_backgroundBlur_1563_3257" result="shape"/>
</filter>
<filter id="filter2_b_1563_3257" x="-825.571" y="-826.067" width="1855.4" height="1855.4" filterUnits="userSpaceOnUse" color-interpolation-filters="sRGB">
<feFlood flood-opacity="0" result="BackgroundImageFix"/>
<feGaussianBlur in="BackgroundImageFix" stdDeviation="434.317"/>
<feComposite in2="SourceAlpha" operator="in" result="effect1_backgroundBlur_1563_3257"/>
<feBlend mode="normal" in="SourceGraphic" in2="effect1_backgroundBlur_1563_3257" result="shape"/>
</filter>
</defs>
</svg>
